<svg width="34" height="35" viewBox="0 0 34 35" fill="none" xmlns="http://www.w3.org/2000/svg">
<rect y="0.5" width="34" height="34" rx="17" fill="black"/>
<path d="M26.8083 20.5583C26.565 20.3142 26.1692 20.3142 25.925 20.5583L24.075 22.4083V13.875C24.075 12.1517 22.6725 10.75 20.95 10.75H16.075C15.73 10.75 15.45 11.03 15.45 11.375C15.45 11.72 15.73 12 16.075 12H20.95C21.9833 12 22.825 12.8417 22.825 13.875V22.4083L20.975 20.5583C20.7308 20.3142 20.335 20.3142 20.0917 20.5583C19.8483 20.8025 19.8467 21.1983 20.0917 21.4417L23.0083 24.3583C23.1292 24.4808 23.2892 24.5417 23.45 24.5417C23.6108 24.5417 23.7692 24.4817 23.8917 24.3583L26.8083 21.4417C27.0533 21.1983 27.0533 20.8025 26.8083 20.5583ZM17.925 23.2917H13.05C12.0167 23.2917 11.175 22.45 11.175 21.4167V12.8833L13.025 14.7333C13.1483 14.8558 13.3083 14.9167 13.4683 14.9167C13.6283 14.9167 13.7883 14.8558 13.91 14.7333C14.1542 14.4892 14.1542 14.0933 13.91 13.85L10.9933 10.9333C10.7492 10.6883 10.3533 10.6883 10.11 10.9333L7.19334 13.85C6.94834 14.0933 6.94834 14.4892 7.19334 14.7333C7.43834 14.9775 7.83251 14.9775 8.07667 14.7333L9.92667 12.8833V21.4167C9.92667 23.14 11.3292 24.5417 13.0517 24.5417H17.9267C18.2717 24.5417 18.5517 24.2617 18.5517 23.9167C18.5517 23.5717 18.2708 23.2917 17.9267 23.2917H17.925Z" fill="#6E767D"/>
</svg>
