<svg width="34" height="35" viewBox="0 0 34 35" fill="none" xmlns="http://www.w3.org/2000/svg">
<rect y="0.5" width="34" height="34" rx="17" fill="black"/>
<path d="M21.6083 13.725L17.4417 9.55834C17.1975 9.31417 16.8017 9.31417 16.5583 9.55834L12.3917 13.725C12.1467 13.9692 12.1467 14.365 12.3917 14.6083C12.6367 14.8517 13.0308 14.8533 13.275 14.6083L16.375 11.5083V20C16.375 20.345 16.655 20.625 17 20.625C17.345 20.625 17.625 20.345 17.625 20V11.5083L20.725 14.6083C20.8467 14.7308 21.0067 14.7917 21.1667 14.7917C21.3267 14.7917 21.4867 14.7317 21.6083 14.6083C21.8525 14.3642 21.8525 13.9692 21.6083 13.725Z" fill="#6E767D"/>
<path d="M23.4233 25.7867H10.5767C9.52334 25.7867 8.66667 24.93 8.66667 23.8767V19.1667C8.66667 18.8217 8.94667 18.5417 9.29167 18.5417C9.63667 18.5417 9.91667 18.8217 9.91667 19.1667V23.8767C9.91667 24.2408 10.2125 24.5367 10.5767 24.5367H23.4233C23.7875 24.5367 24.0833 24.2408 24.0833 23.8767V19.1667C24.0833 18.8217 24.3633 18.5417 24.7083 18.5417C25.0533 18.5417 25.3333 18.8217 25.3333 19.1667V23.8767C25.3333 24.93 24.4767 25.7867 23.4233 25.7867Z" fill="#6E767D"/>
</svg>
