<svg width="24" height="22" viewBox="0 0 24 22" fill="none" xmlns="http://www.w3.org/2000/svg">
    <path d="M22.58 6.34998L12.475 0.896978C12.178 0.736978 11.821 0.736978 11.525 0.896978L1.42502 6.34998C0.939018 6.61398 0.758018 7.21998 1.02002 7.70598C1.20002 8.04098 1.54502 8.23098 1.90002 8.23098C2.06002 8.23098 2.22402 8.19298 2.37502 8.11098L3.10902 7.71498L4.69902 18.965C4.91502 20.179 6.00902 21.027 7.35902 21.027H16.641C17.991 21.027 19.085 20.179 19.303 18.939L20.891 7.71398L21.628 8.11198C22.113 8.37498 22.72 8.19398 22.982 7.70798C23.245 7.22198 23.062 6.61498 22.578 6.35298L22.58 6.34998ZM12 14.435C10.205 14.435 8.75002 12.98 8.75002 11.185C8.75002 9.38998 10.205 7.93498 12 7.93498C13.795 7.93498 15.25 9.38998 15.25 11.185C15.25 12.98 13.795 14.435 12 14.435Z" fill="#D9D9D9"/>
</svg>

